<?xml version="1.0" standalone="no"?>
<!DOCTYPE svg PUBLIC "-//W3C//DTD SVG 20010904//EN"
 "http://www.w3.org/TR/2001/REC-SVG-20010904/DTD/svg10.dtd">
<svg version="1.0" xmlns="http://www.w3.org/2000/svg"
 width="256.000000pt" height="256.000000pt" viewBox="0 0 256.000000 256.000000"
 preserveAspectRatio="xMidYMid meet">
<metadata>
Created by potrace 1.16, written by Peter Selinger 2001-2019
</metadata>
<g transform="translate(0.000000,256.000000) scale(0.100000,-0.100000)"
fill="#000000" stroke="none">
<path d="M0 1280 l0 -1280 1280 0 1280 0 0 1280 0 1280 -1280 0 -1280 0 0
-1280z m1555 590 c-3 -5 -11 -10 -16 -10 -6 0 -7 5 -4 10 3 6 11 10 16 10 6 0
7 -4 4 -10z m-105 -100 c0 -5 -14 -25 -31 -45 -33 -37 -30 -47 5 -18 21 17 21
17 3 -2 -9 -11 -31 -20 -48 -21 l-31 -2 48 49 c52 52 54 54 54 39z m160 -20
c-32 -45 -132 -90 -217 -97 l-72 -6 -6 -41 c-3 -23 -11 -53 -16 -67 -11 -27
-69 -77 -69 -59 0 6 7 13 15 16 19 8 29 39 30 97 0 68 25 88 99 80 60 -6 127
19 201 75 51 39 62 40 35 2z m-450 -40 c12 -7 10 -9 -8 -7 -12 0 -22 5 -22 9
0 11 12 10 30 -2z m445 0 c-14 -23 -165 -87 -165 -71 0 5 15 12 33 15 17 3 55
19 82 36 57 33 58 34 50 20z m-480 -40 c14 0 25 -22 25 -52 0 -14 5 -18 15
-14 27 10 19 -49 -10 -68 -21 -14 -25 -14 -25 -2 0 8 6 17 13 20 6 3 -3 3 -21
0 -30 -5 -33 -4 -28 12 3 11 2 25 -3 33 -14 22 -2 38 25 33 19 -3 23 -1 18 12
-3 9 -12 16 -20 16 -8 0 -14 8 -13 18 0 10 3 12 6 5 2 -7 11 -13 18 -13z m51
-12 c3 -35 -12 -46 -18 -13 -3 14 0 25 6 26 6 0 2 5 -9 10 -18 8 -18 9 -1 6
12 -1 20 -11 22 -29z m410 3 c-17 -27 -150 -69 -161 -51 -3 6 4 10 17 10 13 0
50 13 83 29 59 29 73 32 61 12z m-772 -68 c-4 -27 -15 -66 -24 -88 l-18 -40
-7 47 c-8 52 0 88 20 88 7 0 15 9 18 20 10 39 18 19 11 -27z m730 13 c-19 -14
-33 -18 -101 -32 -13 -2 -23 0 -23 6 0 5 12 10 28 11 15 0 43 7 62 14 47 18
59 18 34 1z m-34 -46 c-8 -5 -24 -10 -35 -10 -17 0 -17 2 -5 10 8 5 24 10 35
10 17 0 17 -2 5 -10z m-275 -40 c3 -5 2 -10 -4 -10 -5 0 -13 5 -16 10 -3 6 -2
10 4 10 5 0 13 -4 16 -10z m-31 -9 c4 -5 -3 -7 -14 -4 -23 6 -26 13 -6 13 8 0
17 -4 20 -9z m254 2 c-10 -2 -26 -2 -35 0 -10 3 -2 5 17 5 19 0 27 -2 18 -5z
m-248 -42 c11 -22 13 -38 4 -28 -8 8 -34 -18 -34 -35 0 -21 60 -72 71 -61 12
12 56 -5 64 -24 6 -17 -27 -17 -43 -1 -7 7 -12 8 -12 2 0 -5 5 -15 12 -22 9
-9 9 -15 0 -24 -9 -9 -16 -7 -32 7 -18 16 -20 17 -14 2 4 -12 1 -17 -10 -17
-10 0 -16 9 -17 23 -1 21 -1 21 -8 -3 -4 -16 -15 -26 -30 -28 l-23 -4 21 21
c12 12 21 26 21 32 0 7 -11 1 -23 -13 -26 -28 -89 -41 -167 -35 -50 5 -62 22
-15 23 84 1 90 3 102 34 7 19 24 36 45 45 18 8 27 14 20 15 -16 0 -7 37 17 64
13 16 14 18 1 14 -8 -2 -23 -21 -34 -42 -21 -43 -32 -43 -16 0 25 64 79 94
100 55z m104 -5 c-3 -9 -10 -13 -15 -10 -5 3 -3 11 4 19 15 16 19 13 11 -9z
m81 -16 c9 -17 11 -30 5 -30 -5 0 -10 5 -10 12 0 6 -7 20 -17 30 -9 10 -11 18
-5 18 6 0 18 -13 27 -30z m-306 -2 c1 -69 -1 -85 -21 -117 -12 -19 -24 -29
-26 -22 -2 6 3 23 12 36 10 15 12 26 6 30 -16 10 -12 57 7 77 21 23 22 23 22
-4z m276 2 c10 -11 14 -20 9 -20 -5 0 -15 9 -22 20 -7 11 -11 20 -9 20 2 0 12
-9 22 -20z m201 4 c18 -14 18 -15 -6 -8 -14 3 -32 10 -40 15 -12 7 -11 8 6 9
11 0 29 -7 40 -16z m-302 -10 c3 -8 2 -12 -4 -9 -6 3 -10 10 -10 16 0 14 7 11
14 -7z m199 4 c-31 -15 -57 -69 -51 -106 5 -36 -14 -44 -31 -14 -10 16 -10 16
-11 0 0 -24 -22 -23 -43 3 -22 25 -14 67 8 49 16 -14 35 -5 35 15 0 9 9 14 23
12 16 -1 22 3 22 18 0 13 9 22 25 26 38 10 47 9 23 -3z m-129 -47 c-6 -6 -24
19 -24 34 1 6 7 1 15 -9 8 -11 12 -22 9 -25z m181 24 l40 -16 -47 6 c-41 5
-48 3 -58 -15 -30 -56 9 -115 87 -130 l38 -8 -42 -1 c-34 -1 -49 5 -73 27 -43
39 -49 80 -15 120 15 18 28 32 28 32 1 0 20 -7 42 -15z m-157 -20 c-3 -3 -9 2
-12 12 -6 14 -5 15 5 6 7 -7 10 -15 7 -18z m-151 -7 c-3 -8 -6 -5 -6 6 -1 11
2 17 5 13 3 -3 4 -12 1 -19z m40 -10 c-3 -7 -5 -2 -5 12 0 14 2 19 5 13 2 -7
2 -19 0 -25z m50 -5 c-3 -10 -5 -4 -5 12 0 17 2 24 5 18 2 -7 2 -21 0 -30z
m353 -49 c0 -6 7 -17 15 -24 21 -17 19 -37 -4 -50 -15 -7 -23 -6 -35 5 -8 8
-32 15 -53 15 -21 0 -43 4 -49 8 -17 12 -46 81 -38 94 5 7 3 8 -6 3 -8 -5 -10
-20 -7 -42 5 -29 4 -33 -8 -23 -19 16 -19 54 -1 73 12 12 23 12 54 4 32 -8 43
-7 63 6 23 17 24 16 46 -20 13 -21 23 -43 23 -49z m-373 44 c-3 -8 -6 -5 -6 6
-1 11 2 17 5 13 3 -3 4 -12 1 -19z m49 -87 c8 7 14 7 14 1 0 -5 -7 -15 -15
-22 -12 -10 -15 -10 -15 0 0 9 -4 9 -17 -1 -15 -13 -15 -12 -3 11 8 16 15 20
18 12 3 -10 7 -10 18 -1z m122 -19 c3 -10 -9 -12 -47 -11 -53 3 -68 14 -28 22
37 8 70 3 75 -11z m-438 -30 c0 -4 -16 -24 -36 -45 -40 -41 -77 -48 -94 -18
-14 27 -13 37 6 55 16 17 124 24 124 8z m234 -27 c-34 -45 -53 -55 -103 -55
-47 0 -49 5 -18 42 27 32 59 47 110 47 l38 1 -27 -35z m276 28 c-1 -13 -45
-60 -68 -72 -24 -13 -92 -15 -92 -2 0 15 42 62 64 71 26 11 96 13 96 3z m299
-285 c1 -28 -3 -38 -15 -38 -9 0 -18 9 -21 20 -7 28 -22 25 -16 -2 4 -22 4
-23 -11 -4 -9 11 -16 16 -16 10 1 -5 12 -22 26 -39 21 -25 24 -26 14 -6 -11
21 -10 23 5 18 9 -4 19 -7 21 -7 2 0 4 -9 4 -19 0 -27 -50 -66 -111 -86 -73
-25 -103 -41 -87 -49 7 -3 4 -4 -7 -2 -11 3 -56 6 -100 8 -82 3 -100 13 -87
47 4 11 7 10 13 -5 5 -13 7 -7 6 18 -1 21 -5 38 -9 38 -5 0 -8 4 -8 9 0 13 23
19 115 31 89 11 202 60 245 105 22 24 25 24 31 8 4 -10 8 -35 8 -55z m-909
-48 c19 -7 73 -16 119 -20 98 -8 111 -19 111 -92 0 -45 -1 -47 -27 -47 -16 0
-56 0 -90 -1 -81 -1 -194 37 -240 81 -32 31 -33 36 -33 106 l0 74 63 -44 c34
-24 78 -50 97 -57z m705 20 c-3 -5 -14 -10 -23 -9 -14 0 -13 2 3 9 27 11 27
11 20 0z m-587 -27 c-10 -2 -26 -2 -35 0 -10 3 -2 5 17 5 19 0 27 -2 18 -5z
m379 -119 c2 -57 9 -67 46 -61 30 4 30 4 10 -13 -60 -48 -393 -38 -393 12 0 9
3 9 12 0 17 -17 47 -15 54 3 5 11 10 13 19 5 10 -9 13 -4 12 22 -1 18 -6 36
-11 39 -5 4 -7 13 -4 20 4 11 35 14 129 15 l124 1 2 -43z m397 5 c29 -35 33
-76 10 -105 -12 -15 -16 -16 -21 -5 -11 27 -43 51 -69 51 -32 0 -64 17 -64 34
0 11 80 53 107 55 6 1 23 -13 37 -30z m-961 -9 c55 -21 45 -53 -21 -66 -33 -7
-35 -10 -36 -54 -1 -15 -8 -26 -18 -28 -12 -2 -16 1 -13 11 3 7 -1 20 -10 27
-29 24 -12 99 29 118 11 6 23 10 26 9 3 -1 22 -9 43 -17z m627 -40 c-20 -13
-40 -13 -40 0 0 6 12 10 28 10 21 0 24 -2 12 -10z m-350 -10 c0 -5 -4 -10 -9
-10 -6 0 -13 5 -16 10 -3 6 1 10 9 10 9 0 16 -4 16 -10z"/>
<path d="M1100 1600 c0 -13 18 -22 24 -11 3 5 -1 11 -9 15 -8 3 -15 1 -15 -4z"/>
<path d="M1716 917 c5 -13 2 -16 -11 -11 -17 7 -17 6 0 -19 21 -33 28 -34 20
-4 -6 21 -6 21 14 -3 11 -14 21 -20 21 -15 0 6 -11 24 -25 40 -14 17 -22 22
-19 12z"/>
<path d="M1584 868 c-4 -6 -3 -8 4 -4 6 3 20 -6 31 -20 12 -15 24 -25 27 -22
5 6 -39 58 -49 58 -3 0 -9 -5 -13 -12z"/>
<path d="M1545 840 c4 -19 11 -39 16 -44 4 -5 3 8 -2 30 -14 50 -24 60 -14 14z"/>
<path d="M1670 850 c6 -11 16 -20 22 -20 6 0 3 9 -7 20 -10 11 -20 20 -22 20
-2 0 1 -9 7 -20z"/>
<path d="M1519 822 c5 -34 6 -35 9 -8 2 16 0 32 -5 37 -5 5 -7 -7 -4 -29z"/>
<path d="M1450 840 c0 -6 5 -10 10 -10 6 0 10 -9 10 -19 0 -11 5 -23 12 -27 8
-5 9 -2 5 10 -4 10 -7 24 -7 31 0 7 -7 15 -15 19 -8 3 -15 1 -15 -4z"/>
<path d="M793 910 c1 -28 -2 -35 -15 -34 -10 1 -15 -2 -12 -7 8 -13 34 -11 39
4 3 6 1 26 -5 42 l-9 30 2 -35z"/>
<path d="M850 890 c0 -5 5 -10 10 -10 6 0 10 5 10 10 0 6 -4 10 -10 10 -5 0
-10 -4 -10 -10z"/>
<path d="M889 855 c-6 -40 -4 -53 7 -43 3 3 4 23 2 44 l-3 39 -6 -40z"/>
<path d="M838 842 c3 -17 7 -20 13 -10 13 19 11 35 -4 35 -9 0 -12 -9 -9 -25z"/>
<path d="M940 840 c-7 -14 -8 -26 -1 -38 9 -14 10 -12 11 15 0 17 6 34 13 36
9 4 9 6 0 6 -7 1 -17 -8 -23 -19z"/>
<path d="M984 818 c0 -35 2 -38 13 -22 16 22 17 39 1 52 -10 8 -13 1 -14 -30z"/>
<path d="M1020 808 c0 -49 5 -47 14 5 4 23 3 37 -4 37 -5 0 -10 -19 -10 -42z"/>
<path d="M1062 808 l1 -43 4 38 c4 37 17 49 26 25 3 -8 6 -6 6 5 1 11 -6 17
-19 17 -17 0 -20 -6 -18 -42z"/>
<path d="M1090 790 c6 -11 13 -20 16 -20 2 0 0 9 -6 20 -6 11 -13 20 -16 20
-2 0 0 -9 6 -20z"/>
<path d="M1370 762 c0 -23 4 -42 9 -42 6 0 7 17 4 38 -8 51 -13 53 -13 4z"/>
<path d="M1240 750 c0 -52 14 -52 18 0 1 22 -2 40 -8 40 -5 0 -10 -18 -10 -40z"/>
<path d="M1301 782 c-1 -8 8 -25 19 -39 14 -18 20 -21 20 -10 0 9 -6 20 -14
24 -7 4 -16 15 -19 23 -4 11 -6 11 -6 2z"/>
</g>
</svg>
